<svg xmlns="http://www.w3.org/2000/svg" viewBox="0 0 248 200.14"><defs><style>.cls-1{fill:#2a5aff;}.cls-2{font-size:100px;fill:#fff;font-family:ArialMT, Arial;letter-spacing:-0.02em;}</style></defs><g id="Слой_2" data-name="Слой 2"><rect class="cls-1" y="89" width="70" height="70" rx="10"/><path d="M178,89h60a10,10,0,0,1,10,10v50a10,10,0,0,1-10,10H188a10,10,0,0,1-10-10V89A0,0,0,0,1,178,89Z"/><rect x="178" width="70" height="70" rx="10"/><rect x="89" width="70" height="70" rx="10"/><rect class="cls-1" width="70" height="70" rx="10"/><path d="M89,89h60a10,10,0,0,1,10,10v50a10,10,0,0,1-10,10H99a10,10,0,0,1-10-10V89A0,0,0,0,1,89,89Z"/></g><g id="Слой_1" data-name="Слой 1"><text class="cls-2" transform="translate(90.36 167.67)">P</text><text class="cls-2" transform="translate(179.45 167.51)">P</text></g></svg>