<svg width="28" height="28" viewBox="0 0 28 28" fill="none" xmlns="http://www.w3.org/2000/svg">
<path d="M24.4399 13.5192L21.4395 16.5196L19.4533 14.5193L8.59269 25.3799L2.11296 28L0 25.887L2.62007 19.4073L13.4807 8.54671L11.4804 6.56053L14.4808 3.56014L24.4399 13.5192ZM20.7915 1.23588C21.5839 0.444507 22.6579 0 23.7778 0C24.8977 0 25.9718 0.444507 26.7641 1.23588C27.5555 2.02824 28 3.10232 28 4.22219C28 5.34207 27.5555 6.41615 26.7641 7.20851L24.0595 9.91309L18.0869 3.94047L20.7915 1.23588ZM5.01475 20.9991L3.52159 24.4784L7.00093 22.9852L17.4671 12.505L15.495 10.5329L5.01475 20.9991Z" fill="white"/>
</svg>
